<?xml version="1.0" encoding="utf-8"?>
<!-- Generator: Adobe Illustrator 25.3.1, SVG Export Plug-In . SVG Version: 6.00 Build 0)  -->
<svg version="1.1" xmlns="http://www.w3.org/2000/svg" xmlns:xlink="http://www.w3.org/1999/xlink" x="0px" y="0px"
	 viewBox="158 80 310 310" style="enable-background:new 158 80 310 310;" xml:space="preserve">
<style type="text/css">
	.st0{display:none;}
	.st1{fill:none;}
	.st2{fill:#1d2e41;}
</style>
<g id="Слой_1" class="st0">
	
		<image style="display:inline;overflow:visible;" width="64" height="64" xlink:href="котэ1.png"  transform="matrix(5.3936 0 0 5.3936 139.5106 62.1702)">
	</image>
</g>
<g id="Слой_2">
	<g>
		
			<ellipse transform="matrix(0.3827 -0.9239 0.9239 0.3827 -13.2778 470.0853)" class="st1" cx="345.1" cy="245" rx="17.9" ry="17.9"/>
		
			<ellipse transform="matrix(0.3827 -0.9239 0.9239 0.3827 -53.6266 409.699)" class="st1" cx="279.8" cy="245" rx="17.9" ry="17.9"/>
		<path class="st1" d="M312.1,92.5c-78.6,0-142.3,63.7-142.3,142.3c0,45,20.9,85.2,53.6,111.2c5-9.6,19-34.8,27.2-35.2
			c10.2-0.5,18.4,21.4,34.2,22c15.8,0.5,27.2,0.5,27.2,0.5l2.1,43.7c0.1,0,0.3,0,0.4,0l1.6-43.3c0,0,11.4-0.1,27.2-0.8
			c15.8-0.7,23.7-22.8,33.9-22.4c7.8,0.3,20.8,22.3,26.6,32.9c30.8-26.1,50.3-65,50.3-108.6C454.4,156.2,390.7,92.5,312.1,92.5z
			 M312.1,314.9c-40.5,0-73.3-26.5-73.3-59.2c0-3.8,0.5-7.5,1.3-11.1l-0.3,0.3c0,0,2.6-82.7,14.4-78.1c11.2,4.4,33.5,30.1,35.6,32.5
			c7-1.8,14.5-2.8,22.3-2.8c7.4,0,14.5,0.9,21.2,2.5l35.2-32.3c10-3.9,13.4,55.6,14.2,73.3c1.7,5,2.6,10.2,2.6,15.6
			C385.4,288.4,352.6,314.9,312.1,314.9z"/>
		<path class="st2" d="M312.1,82.5c-84.1,0-152.3,68.2-152.3,152.3S228,387.1,312.1,387.1s152.3-68.2,152.3-152.3
			S396.2,82.5,312.1,82.5z M404,343.3c1.8,3.4,3,5.6,3,5.6l-37.5,24.5l-55,8.8l0.2-5.2c-0.1,0-0.3,0-0.4,0l0.2,4.8l-55.1-8.2
			l-37.8-24c0,0,0.7-1.4,1.9-3.6c-32.7-26.1-53.6-66.2-53.6-111.2c0-78.6,63.7-142.3,142.3-142.3s142.3,63.7,142.3,142.3
			C454.4,278.3,434.8,317.2,404,343.3z"/>
		<path class="st2" d="M284.9,332.8c-15.8-0.5-24-22.5-34.2-22c-8.3,0.4-22.2,25.6-27.2,35.2c-1.2,2.3-1.9,3.6-1.9,3.6l37.8,24
			l55.1,8.2l-0.2-4.8l-2.1-43.7C312.1,333.3,300.7,333.3,284.9,332.8z"/>
		<path class="st2" d="M377.5,310.5c-10.2-0.4-18.1,21.7-33.9,22.4c-15.8,0.7-27.2,0.8-27.2,0.8l-1.6,43.3l-0.2,5.2l55-8.8
			l37.5-24.5c0,0-1.1-2.2-3-5.6C398.2,332.7,385.2,310.8,377.5,310.5z"/>
		<path class="st2" d="M368.6,166.9l-35.2,32.3c-6.7-1.6-13.8-2.5-21.2-2.5c-7.8,0-15.3,1-22.3,2.8c-2.1-2.5-24.4-28.2-35.6-32.5
			c-11.7-4.6-14.4,78.1-14.4,78.1l0.3-0.3c-0.8,3.6-1.3,7.3-1.3,11.1c0,32.7,32.8,59.2,73.3,59.2s73.3-26.5,73.3-59.2
			c0-5.4-0.9-10.7-2.6-15.6C382,222.5,378.6,162.9,368.6,166.9z M279.8,262.9c-9.9,0-17.9-8-17.9-17.9s8-17.9,17.9-17.9
			s17.9,8,17.9,17.9S289.6,262.9,279.8,262.9z M345.1,262.9c-9.9,0-17.9-8-17.9-17.9s8-17.9,17.9-17.9s17.9,8,17.9,17.9
			S355,262.9,345.1,262.9z"/>
	</g>
</g>
</svg>
